<svg xmlns="http://www.w3.org/2000/svg" version="1.1" width="32px" height="32px"  viewBox="0 0 32 32" fill="none" >
<circle cx="16" cy="16" r="16" fill="#2C2C2C"/>
<g><path style="opacity:1" fill="#fffefe" d="M -0.5,-0.5 C 66.1667,-0.5 132.833,-0.5 199.5,-0.5C 199.5,3.16667 199.5,6.83333 199.5,10.5C 132.833,10.5 66.1667,10.5 -0.5,10.5C -0.5,6.83333 -0.5,3.16667 -0.5,-0.5 Z"/></g>
<g><path style="opacity:1" fill="#f9f8f6" d="M -0.5,10.5 C 66.1667,10.5 132.833,10.5 199.5,10.5C 199.5,68.8333 199.5,127.167 199.5,185.5C 194.186,186.159 188.853,186.826 183.5,187.5C 122.196,185.561 60.8627,184.894 -0.5,185.5C -0.5,127.167 -0.5,68.8333 -0.5,10.5 Z"/></g>
<g><path style="opacity:1" fill="#7f0c26" d="M 137.5,25.5 C 103.191,24.5272 68.8577,24.1939 34.5,24.5C 33.1858,26.9151 32.5191,29.7485 32.5,33C 32.5417,36.2508 32.875,39.4174 33.5,42.5C 32.8333,42.5 32.1667,42.5 31.5,42.5C 31.5,36.1667 31.5,29.8333 31.5,23.5C 65.835,23.3333 100.168,23.5 134.5,24C 135.737,24.2321 136.737,24.7321 137.5,25.5 Z"/></g>
<g><path style="opacity:1" fill="#cb0133" d="M 34.5,25.5 C 66.8351,25.3334 99.1684,25.5 131.5,26C 138.328,27.3327 144.994,29.166 151.5,31.5C 152.167,31.5 152.833,31.5 153.5,31.5C 154.192,34.935 156.192,36.935 159.5,37.5C 162.609,40.278 164.942,43.6114 166.5,47.5C 167.32,53.7974 167.653,60.1308 167.5,66.5C 167.5,67.1667 167.5,67.8333 167.5,68.5C 164.612,71.8588 162.279,75.5255 160.5,79.5C 159.833,79.5 159.5,79.8333 159.5,80.5C 157.545,79.6765 155.545,79.5099 153.5,80C 155.592,80.9525 155.925,82.2859 154.5,84C 152.19,84.4966 149.857,84.6633 147.5,84.5C 147.567,85.9587 147.234,87.2921 146.5,88.5C 143.833,89.1667 141.167,89.8333 138.5,90.5C 138.694,94.2483 140.361,96.915 143.5,98.5C 144.167,99.8333 145.167,100.833 146.5,101.5C 146.343,102.873 146.51,104.207 147,105.5C 148.813,107.625 150.647,109.625 152.5,111.5C 153.167,112.833 153.833,114.167 154.5,115.5C 157.957,119.855 160.457,124.855 162,130.5C 164.018,131.223 165.852,132.223 167.5,133.5C 167.5,133.833 167.5,134.167 167.5,134.5C 171.298,135.483 175.298,135.817 179.5,135.5C 179.5,141.167 179.5,146.833 179.5,152.5C 178.167,152.5 176.833,152.5 175.5,152.5C 155.833,152.5 136.167,152.5 116.5,152.5C 116.5,147.167 116.5,141.833 116.5,136.5C 120.371,136.815 124.038,136.482 127.5,135.5C 127.975,132.687 126.975,130.687 124.5,129.5C 124.672,128.508 124.338,127.842 123.5,127.5C 123.649,126.448 123.483,125.448 123,124.5C 122.26,122.681 121.093,121.348 119.5,120.5C 119.5,119.833 119.5,119.167 119.5,118.5C 117.616,113.943 115.283,109.61 112.5,105.5C 111.583,104.873 110.583,104.539 109.5,104.5C 109.5,103.5 109.5,102.5 109.5,101.5C 108.781,98.9275 107.781,96.4275 106.5,94C 98.8333,93.3333 91.1667,93.3333 83.5,94C 82.5842,94.2784 81.9175,94.7784 81.5,95.5C 80.097,110.369 80.2637,125.369 82,140.5C 82.3742,139.584 82.8742,138.75 83.5,138C 85.8098,137.503 88.1432,137.337 90.5,137.5C 90.5,142.5 90.5,147.5 90.5,152.5C 71.8333,152.5 53.1667,152.5 34.5,152.5C 34.5,147.5 34.5,142.5 34.5,137.5C 37.6981,138.036 40.3647,137.369 42.5,135.5C 42.5,134.833 42.5,134.167 42.5,133.5C 43.6639,103.336 43.8306,73.0028 43,42.5C 40.0492,40.9239 36.8826,40.2572 33.5,40.5C 33.1795,35.3054 33.5128,30.3054 34.5,25.5 Z"/></g>
<g><path style="opacity:1" fill="#a59d9e" d="M 127.5,20.5 C 94.5,20.5 61.5,20.5 28.5,20.5C 28.5,28.8333 28.5,37.1667 28.5,45.5C 32.0419,45.1872 35.3752,45.5206 38.5,46.5C 34.8333,46.5 31.1667,46.5 27.5,46.5C 27.5,37.5 27.5,28.5 27.5,19.5C 61.0042,19.1684 94.3375,19.5017 127.5,20.5 Z"/></g>
<g><path style="opacity:1" fill="#8a0b29" d="M 153.5,31.5 C 155.518,32.8592 157.518,34.1925 159.5,35.5C 159.5,36.1667 159.5,36.8333 159.5,37.5C 156.192,36.935 154.192,34.935 153.5,31.5 Z"/></g>
<g><path style="opacity:1" fill="#300c0e" d="M 159.5,35.5 C 160.5,35.5 161.5,35.5 162.5,35.5C 163.167,35.5 163.5,35.8333 163.5,36.5C 164.703,40.1101 165.703,43.7768 166.5,47.5C 164.942,43.6114 162.609,40.278 159.5,37.5C 159.5,36.8333 159.5,36.1667 159.5,35.5 Z"/></g>
<g><path style="opacity:1" fill="#9b0f31" d="M 34.5,24.5 C 34.5,24.8333 34.5,25.1667 34.5,25.5C 33.5128,30.3054 33.1795,35.3054 33.5,40.5C 36.8826,40.2572 40.0492,40.9239 43,42.5C 43.8306,73.0028 43.6639,103.336 42.5,133.5C 42.6666,103.498 42.5,73.4981 42,43.5C 39.2809,42.5562 36.4475,42.2229 33.5,42.5C 32.875,39.4174 32.5417,36.2508 32.5,33C 32.5191,29.7485 33.1858,26.9151 34.5,24.5 Z"/></g>
<g><path style="opacity:1" fill="#1a0e0e" d="M 127.5,20.5 C 141.177,21.0511 152.843,26.0511 162.5,35.5C 161.5,35.5 160.5,35.5 159.5,35.5C 157.518,34.1925 155.518,32.8592 153.5,31.5C 152.833,31.5 152.167,31.5 151.5,31.5C 147.461,28.15 142.795,26.15 137.5,25.5C 136.737,24.7321 135.737,24.2321 134.5,24C 100.168,23.5 65.835,23.3333 31.5,23.5C 31.5,29.8333 31.5,36.1667 31.5,42.5C 34.5629,43.2014 37.7296,43.868 41,44.5C 41.8332,74.1723 41.6665,103.839 40.5,133.5C 37.3596,134.089 34.3596,134.756 31.5,135.5C 31.5,141.833 31.5,148.167 31.5,154.5C 52.0069,154.83 72.3402,154.497 92.5,153.5C 93.4902,147.355 93.8235,141.022 93.5,134.5C 89.8333,134.5 86.1667,134.5 82.5,134.5C 82.5,121.5 82.5,108.5 82.5,95.5C 89.5,95.5 96.5,95.5 103.5,95.5C 104.283,99.6052 106.283,102.939 109.5,105.5C 111.299,108.413 113.132,111.413 115,114.5C 116.694,115.699 118.194,117.032 119.5,118.5C 119.5,119.167 119.5,119.833 119.5,120.5C 120.079,123.331 121.412,125.664 123.5,127.5C 124.338,127.842 124.672,128.508 124.5,129.5C 124.703,131.044 125.37,132.378 126.5,133.5C 122.555,134.491 118.555,134.824 114.5,134.5C 114.5,141.167 114.5,147.833 114.5,154.5C 136.503,154.667 158.503,154.5 180.5,154C 181.642,147.916 181.809,141.749 181,135.5C 176.599,134.533 172.099,134.2 167.5,134.5C 167.5,134.167 167.5,133.833 167.5,133.5C 166.37,131.685 165.704,129.685 165.5,127.5C 164.5,127.5 163.5,127.5 162.5,127.5C 161.044,122.707 158.377,118.707 154.5,115.5C 153.833,114.167 153.167,112.833 152.5,111.5C 152.649,110.448 152.483,109.448 152,108.5C 150.147,106.097 148.314,103.764 146.5,101.5C 145.167,100.833 144.167,99.8333 143.5,98.5C 143.214,96.7231 142.547,95.0564 141.5,93.5C 142.855,91.4788 144.521,89.8121 146.5,88.5C 152.056,87.5677 156.389,84.901 159.5,80.5C 159.5,79.8333 159.833,79.5 160.5,79.5C 163.892,76.5768 166.225,72.9101 167.5,68.5C 167.5,67.8333 167.5,67.1667 167.5,66.5C 168.652,61.0154 168.818,55.3487 168,49.5C 167.722,48.5842 167.222,47.9175 166.5,47.5C 165.703,43.7768 164.703,40.1101 163.5,36.5C 174.533,49.7391 175.367,63.7391 166,78.5C 160.363,85.0571 153.53,89.7238 145.5,92.5C 152.461,105.741 160.461,118.408 169.5,130.5C 174.12,131.493 178.786,131.827 183.5,131.5C 183.5,140.167 183.5,148.833 183.5,157.5C 159.5,157.5 135.5,157.5 111.5,157.5C 111.5,148.833 111.5,140.167 111.5,131.5C 114.833,131.5 118.167,131.5 121.5,131.5C 115.7,120.575 109.367,109.908 102.5,99.5C 97.0247,98.5111 91.358,98.1778 85.5,98.5C 85.5,109.5 85.5,120.5 85.5,131.5C 88.8333,131.5 92.1667,131.5 95.5,131.5C 95.5,139.833 95.5,148.167 95.5,156.5C 73.5,156.5 51.5,156.5 29.5,156.5C 29.5,148.5 29.5,140.5 29.5,132.5C 32.7131,132.81 35.7131,132.477 38.5,131.5C 38.5,103.167 38.5,74.8333 38.5,46.5C 35.3752,45.5206 32.0419,45.1872 28.5,45.5C 28.5,37.1667 28.5,28.8333 28.5,20.5C 61.5,20.5 94.5,20.5 127.5,20.5 Z"/></g>
<g><path style="opacity:1" fill="#aa0a31" d="M 109.5,101.5 C 107.485,99.424 105.485,97.424 103.5,95.5C 96.5,95.5 89.5,95.5 82.5,95.5C 82.1667,95.5 81.8333,95.5 81.5,95.5C 81.9175,94.7784 82.5842,94.2784 83.5,94C 91.1667,93.3333 98.8333,93.3333 106.5,94C 107.781,96.4275 108.781,98.9275 109.5,101.5 Z"/></g>
<g><path style="opacity:1" fill="#8b0826" d="M 146.5,88.5 C 144.521,89.8121 142.855,91.4788 141.5,93.5C 142.547,95.0564 143.214,96.7231 143.5,98.5C 140.361,96.915 138.694,94.2483 138.5,90.5C 141.167,89.8333 143.833,89.1667 146.5,88.5 Z"/></g>
<g><path style="opacity:1" fill="#a00a2e" d="M 159.5,80.5 C 156.389,84.901 152.056,87.5677 146.5,88.5C 147.234,87.2921 147.567,85.9587 147.5,84.5C 149.857,84.6633 152.19,84.4966 154.5,84C 155.925,82.2859 155.592,80.9525 153.5,80C 155.545,79.5099 157.545,79.6765 159.5,80.5 Z"/></g>
<g><path style="opacity:1" fill="#540213" d="M 31.5,42.5 C 32.1667,42.5 32.8333,42.5 33.5,42.5C 36.4475,42.2229 39.2809,42.5562 42,43.5C 42.5,73.4981 42.6666,103.498 42.5,133.5C 42.5,134.167 42.5,134.833 42.5,135.5C 38.8333,135.5 35.1667,135.5 31.5,135.5C 34.3596,134.756 37.3596,134.089 40.5,133.5C 41.6665,103.839 41.8332,74.1723 41,44.5C 37.7296,43.868 34.5629,43.2014 31.5,42.5 Z"/></g>
<g><path style="opacity:1" fill="#5f0419" d="M 124.5,69.5 C 121.544,74.1654 117.211,76.1654 111.5,75.5C 112.568,74.5655 113.901,74.2322 115.5,74.5C 118.688,73.0748 121.688,71.4081 124.5,69.5 Z"/></g>
<g><path style="opacity:1" fill="#1b1918" d="M 85.5,46.5 C 85.5,55.5 85.5,64.5 85.5,73.5C 94.8734,73.7517 104.207,73.4183 113.5,72.5C 114.833,72.5 115.5,73.1667 115.5,74.5C 113.901,74.2322 112.568,74.5655 111.5,75.5C 102.167,75.5 92.8333,75.5 83.5,75.5C 83.5,65.1667 83.5,54.8333 83.5,44.5C 92.8393,44.3335 102.173,44.5002 111.5,45C 102.657,45.1704 93.9903,45.6704 85.5,46.5 Z"/></g>
<g><path style="opacity:1" fill="#7d0d26" d="M 167.5,68.5 C 166.225,72.9101 163.892,76.5768 160.5,79.5C 162.279,75.5255 164.612,71.8588 167.5,68.5 Z"/></g>
<g><path style="opacity:1" fill="#800828" d="M 166.5,47.5 C 167.222,47.9175 167.722,48.5842 168,49.5C 168.818,55.3487 168.652,61.0154 167.5,66.5C 167.653,60.1308 167.32,53.7974 166.5,47.5 Z"/></g>
<g><path style="opacity:1" fill="#a10e32" d="M 81.5,42.5 C 81.5,54.1667 81.5,65.8333 81.5,77.5C 80.5028,77.5299 79.8361,77.0299 79.5,76C 80.8094,65.6775 80.8094,55.3441 79.5,45C 79.6842,43.6244 80.3509,42.7911 81.5,42.5 Z"/></g>
<g><path style="opacity:1" fill="#231515" d="M 122.5,47.5 C 127.281,52.3944 128.781,58.3944 127,65.5C 126.338,66.9839 125.504,68.3172 124.5,69.5C 121.688,71.4081 118.688,73.0748 115.5,74.5C 115.5,73.1667 114.833,72.5 113.5,72.5C 121.74,69.7599 125.24,64.0932 124,55.5C 121.805,51.6412 118.638,48.8079 114.5,47C 104.839,46.5002 95.1724,46.3335 85.5,46.5C 93.9903,45.6704 102.657,45.1704 111.5,45C 102.173,44.5002 92.8393,44.3335 83.5,44.5C 83.5,54.8333 83.5,65.1667 83.5,75.5C 92.8333,75.5 102.167,75.5 111.5,75.5C 111.5,75.8333 111.5,76.1667 111.5,76.5C 101.833,76.5 92.1667,76.5 82.5,76.5C 82.5,65.5 82.5,54.5 82.5,43.5C 93.1719,43.3335 103.839,43.5002 114.5,44C 116.867,45.8448 119.533,47.0114 122.5,47.5 Z"/></g>
<g><path style="opacity:1" fill="#f8f6f5" d="M 85.5,46.5 C 95.1724,46.3335 104.839,46.5002 114.5,47C 118.638,48.8079 121.805,51.6412 124,55.5C 125.24,64.0932 121.74,69.7599 113.5,72.5C 104.207,73.4183 94.8734,73.7517 85.5,73.5C 85.5,64.5 85.5,55.5 85.5,46.5 Z"/></g>
<g><path style="opacity:1" fill="#5d0418" d="M 122.5,47.5 C 119.533,47.0114 116.867,45.8448 114.5,44C 103.839,43.5002 93.1719,43.3335 82.5,43.5C 82.5,54.5 82.5,65.5 82.5,76.5C 92.1667,76.5 101.833,76.5 111.5,76.5C 101.681,77.494 91.6806,77.8274 81.5,77.5C 81.5,65.8333 81.5,54.1667 81.5,42.5C 91.4229,41.36 101.423,41.1934 111.5,42C 115.99,42.426 119.656,44.2594 122.5,47.5 Z"/></g>
<g><path style="opacity:1" fill="#b20b33" d="M 34.5,25.5 C 34.5,25.1667 34.5,24.8333 34.5,24.5C 68.8577,24.1939 103.191,24.5272 137.5,25.5C 142.795,26.15 147.461,28.15 151.5,31.5C 144.994,29.166 138.328,27.3327 131.5,26C 99.1684,25.5 66.8351,25.3334 34.5,25.5 Z"/></g>
<g><path style="opacity:1" fill="#440611" d="M 103.5,95.5 C 105.485,97.424 107.485,99.424 109.5,101.5C 109.5,102.5 109.5,103.5 109.5,104.5C 109.5,104.833 109.5,105.167 109.5,105.5C 106.283,102.939 104.283,99.6052 103.5,95.5 Z"/></g>
<g><path style="opacity:1" fill="#940f2f" d="M 109.5,105.5 C 109.5,105.167 109.5,104.833 109.5,104.5C 110.583,104.539 111.583,104.873 112.5,105.5C 115.283,109.61 117.616,113.943 119.5,118.5C 118.194,117.032 116.694,115.699 115,114.5C 113.132,111.413 111.299,108.413 109.5,105.5 Z"/></g>
<g><path style="opacity:1" fill="#6e0720" d="M 146.5,101.5 C 148.314,103.764 150.147,106.097 152,108.5C 152.483,109.448 152.649,110.448 152.5,111.5C 150.647,109.625 148.813,107.625 147,105.5C 146.51,104.207 146.343,102.873 146.5,101.5 Z"/></g>
<g><path style="opacity:1" fill="#870b2a" d="M 154.5,115.5 C 158.377,118.707 161.044,122.707 162.5,127.5C 163.5,127.5 164.5,127.5 165.5,127.5C 165.704,129.685 166.37,131.685 167.5,133.5C 165.852,132.223 164.018,131.223 162,130.5C 160.457,124.855 157.957,119.855 154.5,115.5 Z"/></g>
<g><path style="opacity:1" fill="#5a0518" d="M 119.5,120.5 C 121.093,121.348 122.26,122.681 123,124.5C 123.483,125.448 123.649,126.448 123.5,127.5C 121.412,125.664 120.079,123.331 119.5,120.5 Z"/></g>
<g><path style="opacity:1" fill="#4b0111" d="M 82.5,134.5 C 86.1667,134.5 89.8333,134.5 93.5,134.5C 93.8235,141.022 93.4902,147.355 92.5,153.5C 92.5,147.5 92.5,141.5 92.5,135.5C 88.9581,135.813 85.6248,135.479 82.5,134.5 Z"/></g>
<g><path style="opacity:1" fill="#910a2a" d="M 81.5,95.5 C 81.8333,95.5 82.1667,95.5 82.5,95.5C 82.5,108.5 82.5,121.5 82.5,134.5C 85.6248,135.479 88.9581,135.813 92.5,135.5C 92.5,141.5 92.5,147.5 92.5,153.5C 72.3402,154.497 52.0069,154.83 31.5,154.5C 31.5,148.167 31.5,141.833 31.5,135.5C 35.1667,135.5 38.8333,135.5 42.5,135.5C 40.3647,137.369 37.6981,138.036 34.5,137.5C 34.5,142.5 34.5,147.5 34.5,152.5C 53.1667,152.5 71.8333,152.5 90.5,152.5C 90.5,147.5 90.5,142.5 90.5,137.5C 88.1432,137.337 85.8098,137.503 83.5,138C 82.8742,138.75 82.3742,139.584 82,140.5C 80.2637,125.369 80.097,110.369 81.5,95.5 Z"/></g>
<g><path style="opacity:1" fill="#5d0419" d="M 124.5,129.5 C 126.975,130.687 127.975,132.687 127.5,135.5C 123.5,135.5 119.5,135.5 115.5,135.5C 115.5,141.5 115.5,147.5 115.5,153.5C 135.674,153.83 155.674,153.497 175.5,152.5C 176.833,152.5 178.167,152.5 179.5,152.5C 179.5,146.833 179.5,141.167 179.5,135.5C 175.298,135.817 171.298,135.483 167.5,134.5C 172.099,134.2 176.599,134.533 181,135.5C 181.809,141.749 181.642,147.916 180.5,154C 158.503,154.5 136.503,154.667 114.5,154.5C 114.5,147.833 114.5,141.167 114.5,134.5C 118.555,134.824 122.555,134.491 126.5,133.5C 125.37,132.378 124.703,131.044 124.5,129.5 Z"/></g>
<g><path style="opacity:1" fill="#ab1036" d="M 127.5,135.5 C 124.038,136.482 120.371,136.815 116.5,136.5C 116.5,141.833 116.5,147.167 116.5,152.5C 136.167,152.5 155.833,152.5 175.5,152.5C 155.674,153.497 135.674,153.83 115.5,153.5C 115.5,147.5 115.5,141.5 115.5,135.5C 119.5,135.5 123.5,135.5 127.5,135.5 Z"/></g>
<g><path style="opacity:1" fill="#261f1e" d="M 38.5,131.5 C 35.7131,132.477 32.7131,132.81 29.5,132.5C 29.5,140.5 29.5,148.5 29.5,156.5C 51.5,156.5 73.5,156.5 95.5,156.5C 73.3396,157.497 51.0062,157.831 28.5,157.5C 28.5,148.833 28.5,140.167 28.5,131.5C 31.8333,131.5 35.1667,131.5 38.5,131.5 Z"/></g>
<g><path style="opacity:1" fill="#b4b1b0" d="M 102.5,99.5 C 97.1667,99.5 91.8333,99.5 86.5,99.5C 86.5,109.833 86.5,120.167 86.5,130.5C 89.8333,130.5 93.1667,130.5 96.5,130.5C 96.5,139.833 96.5,149.167 96.5,158.5C 73.6605,158.831 50.9939,158.497 28.5,157.5C 51.0062,157.831 73.3396,157.497 95.5,156.5C 95.5,148.167 95.5,139.833 95.5,131.5C 92.1667,131.5 88.8333,131.5 85.5,131.5C 85.5,120.5 85.5,109.5 85.5,98.5C 91.358,98.1778 97.0247,98.5111 102.5,99.5 Z"/></g>
<g><path style="opacity:1" fill="#adabaa" d="M 183.5,131.5 C 184.493,140.318 184.827,149.318 184.5,158.5C 159.994,158.831 135.661,158.498 111.5,157.5C 135.5,157.5 159.5,157.5 183.5,157.5C 183.5,148.833 183.5,140.167 183.5,131.5 Z"/></g>
<g><path style="opacity:1" fill="#383636" d="M 130.5,167.5 C 136.176,167.947 136.509,168.781 131.5,170C 130.663,171.011 130.33,172.178 130.5,173.5C 132.288,173.215 133.955,173.548 135.5,174.5C 128.789,175.788 127.123,173.455 130.5,167.5 Z"/></g>
<g><path style="opacity:1" fill="#656465" d="M 150.5,169.5 C 149.081,168.549 147.415,168.216 145.5,168.5C 145.5,170.833 145.5,173.167 145.5,175.5C 145.167,175.5 144.833,175.5 144.5,175.5C 144.5,172.833 144.5,170.167 144.5,167.5C 146.924,167.192 149.257,167.526 151.5,168.5C 151.376,169.107 151.043,169.44 150.5,169.5 Z"/></g>
<g><path style="opacity:1" fill="#302e2e" d="M 40.5,167.5 C 45.7086,167.369 47.3753,169.703 45.5,174.5C 38.37,176.277 36.7033,173.944 40.5,167.5 Z"/></g>
<g><path style="opacity:1" fill="#434141" d="M 62.5,167.5 C 64.5914,167.318 66.5914,167.652 68.5,168.5C 69.6139,169.723 69.7805,171.056 69,172.5C 66.9637,173.102 65.1303,174.102 63.5,175.5C 62.52,172.914 62.1866,170.247 62.5,167.5 Z"/></g>
<g><path style="opacity:1" fill="#878586" d="M 79.5,174.5 C 79.6621,172.473 79.4955,170.473 79,168.5C 78.8019,170.382 78.3019,172.048 77.5,173.5C 77.5,171.5 77.5,169.5 77.5,167.5C 78.5,167.5 79.5,167.5 80.5,167.5C 80.8016,170.059 80.4682,172.393 79.5,174.5 Z"/></g>
<g><path style="opacity:1" fill="#626060" d="M 138.5,167.5 C 139.5,167.5 140.5,167.5 141.5,167.5C 141.5,170.167 141.5,172.833 141.5,175.5C 140.5,175.5 139.5,175.5 138.5,175.5C 138.5,172.833 138.5,170.167 138.5,167.5 Z"/></g>
<g><path style="opacity:1" fill="#292626" d="M 162.5,175.5 C 160.284,174.797 158.451,173.464 157,171.5C 156.301,176.281 155.801,176.447 155.5,172C 155.608,170.319 156.275,169.152 157.5,168.5C 159.595,172.652 160.928,172.319 161.5,167.5C 162.48,170.086 162.813,172.753 162.5,175.5 Z"/></g>
<g><path style="opacity:1" fill="#302d2d" d="M 168.5,167.5 C 173.629,168.614 173.629,169.281 168.5,169.5C 168.5,170.833 168.5,172.167 168.5,173.5C 169.978,173.238 171.311,173.571 172.5,174.5C 167.383,176.552 165.55,174.885 167,169.5C 167.717,168.956 168.217,168.289 168.5,167.5 Z"/></g>
<g><path style="opacity:1" fill="#41403f" d="M 182.5,167.5 C 181.817,169.176 180.483,169.843 178.5,169.5C 177.487,170.659 177.153,172.659 177.5,175.5C 177.167,175.5 176.833,175.5 176.5,175.5C 176.5,172.833 176.5,170.167 176.5,167.5C 178.5,167.5 180.5,167.5 182.5,167.5 Z"/></g>
<g><path style="opacity:1" fill="#2f2e2c" d="M 30.5,167.5 C 35.6294,168.614 35.6294,169.281 30.5,169.5C 30.5,170.833 30.5,172.167 30.5,173.5C 31.9778,173.238 33.3112,173.571 34.5,174.5C 29.3831,176.552 27.5498,174.885 29,169.5C 29.7172,168.956 30.2172,168.289 30.5,167.5 Z"/></g>
<g><path style="opacity:1" fill="#797878" d="M 75.5,173.5 C 74.6981,172.048 74.1981,170.382 74,168.5C 73.5045,170.473 73.3379,172.473 73.5,174.5C 72.5318,172.393 72.1984,170.059 72.5,167.5C 73.5,167.5 74.5,167.5 75.5,167.5C 75.5,169.5 75.5,171.5 75.5,173.5 Z"/></g>
<g><path style="opacity:1" fill="#282626" d="M 93.5,167.5 C 99.6966,167.325 100.363,168.325 95.5,170.5C 96.376,171.251 97.376,171.751 98.5,172C 94.7351,173.377 95.0684,174.377 99.5,175C 97.5273,175.495 95.5273,175.662 93.5,175.5C 93.5,172.833 93.5,170.167 93.5,167.5 Z"/></g>
<g><path style="opacity:1" fill="#333131" d="M 103.5,167.5 C 110.183,167.169 111.85,169.836 108.5,175.5C 107.167,172.833 105.833,172.833 104.5,175.5C 103.52,172.914 103.187,170.247 103.5,167.5 Z"/></g>
<g><path style="opacity:1" fill="#c9c6c7" d="M 105.5,169.5 C 106.675,169.281 107.675,169.614 108.5,170.5C 106.948,171.798 105.948,171.465 105.5,169.5 Z"/></g>
<g><path style="opacity:1" fill="#e6e5e4" d="M 40.5,169.5 C 43.5,169.167 44.8333,170.5 44.5,173.5C 43.1667,173.5 41.8333,173.5 40.5,173.5C 40.5,172.167 40.5,170.833 40.5,169.5 Z"/></g>
<g><path style="opacity:1" fill="#31302f" d="M 120.5,167.5 C 124.971,167.672 125.304,168.506 121.5,170C 122.579,170.956 123.745,171.789 125,172.5C 125.617,173.449 125.451,174.282 124.5,175C 122.272,175.82 120.272,175.487 118.5,174C 122.511,173.834 123.011,173 120,171.5C 119.421,170.072 119.588,168.738 120.5,167.5 Z"/></g>
<g><path style="opacity:1" fill="#121010" d="M 150.5,169.5 C 145.203,170.032 145.203,170.866 150.5,172C 149.552,172.483 148.552,172.649 147.5,172.5C 146.957,172.56 146.624,172.893 146.5,173.5C 151.657,174.987 151.324,175.653 145.5,175.5C 145.5,173.167 145.5,170.833 145.5,168.5C 147.415,168.216 149.081,168.549 150.5,169.5 Z"/></g>
<g><path style="opacity:1" fill="#0d0b0c" d="M 178.5,169.5 C 179.23,171.045 180.563,171.878 182.5,172C 177.167,173 177.167,174 182.5,175C 180.866,175.494 179.199,175.66 177.5,175.5C 177.153,172.659 177.487,170.659 178.5,169.5 Z"/></g>
<g><path style="opacity:1" fill="#cecccd" d="M 182.5,167.5 C 186.648,175.135 184.648,177.802 176.5,175.5C 176.833,175.5 177.167,175.5 177.5,175.5C 179.199,175.66 180.866,175.494 182.5,175C 177.167,174 177.167,173 182.5,172C 180.563,171.878 179.23,171.045 178.5,169.5C 180.483,169.843 181.817,169.176 182.5,167.5 Z"/></g>
<g><path style="opacity:1" fill="#343232" d="M 83.5,167.5 C 85.924,167.192 88.2573,167.526 90.5,168.5C 89.675,169.386 88.675,169.719 87.5,169.5C 87.7989,171.604 87.4656,173.604 86.5,175.5C 85.6798,172.699 84.6798,170.032 83.5,167.5 Z"/></g>
<g><path style="opacity:1" fill="#191616" d="M 75.5,173.5 C 76.1667,173.5 76.8333,173.5 77.5,173.5C 78.3019,172.048 78.8019,170.382 79,168.5C 79.4955,170.473 79.6621,172.473 79.5,174.5C 77.5,175.833 75.5,175.833 73.5,174.5C 73.3379,172.473 73.5045,170.473 74,168.5C 74.1981,170.382 74.6981,172.048 75.5,173.5 Z"/></g>
<g><path style="opacity:1" fill="#b7b4b3" d="M 157.5,168.5 C 156.275,169.152 155.608,170.319 155.5,172C 155.801,176.447 156.301,176.281 157,171.5C 158.451,173.464 160.284,174.797 162.5,175.5C 160.048,175.387 157.382,175.72 154.5,176.5C 154.5,173.5 154.5,170.5 154.5,167.5C 155.791,167.263 156.791,167.596 157.5,168.5 Z"/></g>
<g><path style="opacity:1" fill="#b5b3b2" d="M 52.5,168.5 C 51.2749,169.152 50.6083,170.319 50.5,172C 50.8012,176.447 51.3012,176.281 52,171.5C 52.8333,172.5 53.6667,173.5 54.5,174.5C 56.7222,170.288 57.8888,170.621 58,175.5C 58.1667,174.333 58.3333,173.167 58.5,172C 58.3917,170.319 57.7251,169.152 56.5,168.5C 57.209,167.596 58.209,167.263 59.5,167.5C 59.5,170.5 59.5,173.5 59.5,176.5C 56.1667,176.5 52.8333,176.5 49.5,176.5C 49.5,173.5 49.5,170.5 49.5,167.5C 50.791,167.263 51.791,167.596 52.5,168.5 Z"/></g>
<g><path style="opacity:1" fill="#252323" d="M 52.5,168.5 C 53.1577,169.398 53.8243,170.398 54.5,171.5C 55.1757,170.398 55.8423,169.398 56.5,168.5C 57.7251,169.152 58.3917,170.319 58.5,172C 58.3333,173.167 58.1667,174.333 58,175.5C 57.8888,170.621 56.7222,170.288 54.5,174.5C 53.6667,173.5 52.8333,172.5 52,171.5C 51.3012,176.281 50.8012,176.447 50.5,172C 50.6083,170.319 51.2749,169.152 52.5,168.5 Z"/></g>
<g><path style="opacity:1" fill="#afadac" d="M 147.5,172.5 C 148.568,173.434 149.901,173.768 151.5,173.5C 151.5,174.5 151.5,175.5 151.5,176.5C 148.941,176.802 146.607,176.468 144.5,175.5C 144.833,175.5 145.167,175.5 145.5,175.5C 151.324,175.653 151.657,174.987 146.5,173.5C 146.624,172.893 146.957,172.56 147.5,172.5 Z"/></g>
<g><path style="opacity:1" fill="#fefefe" d="M -0.5,185.5 C 60.8627,184.894 122.196,185.561 183.5,187.5C 188.853,186.826 194.186,186.159 199.5,185.5C 199.5,190.167 199.5,194.833 199.5,199.5C 132.833,199.5 66.1667,199.5 -0.5,199.5C -0.5,194.833 -0.5,190.167 -0.5,185.5 Z"/></g>
</svg>



